<svg id="Layer_1" data-name="Layer 1" xmlns="http://www.w3.org/2000/svg" viewBox="0 0 325.11 67.4"><defs><style>.cls-1{fill:#d1d3d4;}.cls-2{fill:#b6d881;}.cls-3{fill:#aab2bd;}.cls-4{fill:#f36f54;}.cls-5{fill:#f48270;}.cls-6{fill:#010101;}</style></defs><path class="cls-1" d="M76.83,19.57H84V56.06H76.83ZM98.62,34a8.67,8.67,0,0,0-1.89-6,6.89,6.89,0,0,0-5.38-2.11,7.46,7.46,0,0,0-5.43,1.87A7,7,0,0,0,84,33l-.74-7a13.07,13.07,0,0,1,4.41-5.09,10.72,10.72,0,0,1,6-1.8,11.82,11.82,0,0,1,6.54,1.74,10.93,10.93,0,0,1,4.13,5.08,20.47,20.47,0,0,1,1.43,8V56.06H98.62Zm21.8,0a8.37,8.37,0,0,0-2-6,7.42,7.42,0,0,0-5.63-2.11,6.58,6.58,0,0,0-5.17,2,8.39,8.39,0,0,0-1.82,5.77l-1.45-7A14,14,0,0,1,108.91,21a10.63,10.63,0,0,1,6.24-2,12.48,12.48,0,0,1,6.73,1.74,11,11,0,0,1,4.25,5.08,19.93,19.93,0,0,1,1.46,8V56.06h-7.17Z"/><path class="cls-1" d="M144.78,54.69a12.62,12.62,0,0,1-5.46-5.57,19.22,19.22,0,0,1-1.88-8.88V36.13a21.49,21.49,0,0,1,1.81-9.25,12.92,12.92,0,0,1,5.25-5.83,16.22,16.22,0,0,1,8.3-2,13.17,13.17,0,0,1,7.8,2.29,14.13,14.13,0,0,1,4.94,6.61,28.19,28.19,0,0,1,1.71,10.37V40.7H142.64V34.93h17.79a12.31,12.31,0,0,0-2.3-6.94,6.49,6.49,0,0,0-5.33-2.48,7.77,7.77,0,0,0-6.31,2.67q-2.24,2.68-2.23,7.56v4.64c0,3,.79,5.35,2.39,7a9.07,9.07,0,0,0,6.78,2.43,11.25,11.25,0,0,0,4.33-.88,12.31,12.31,0,0,0,3.83-2.46l4.71,4.71a19.84,19.84,0,0,1-6.08,4,17.31,17.31,0,0,1-6.79,1.42A18.26,18.26,0,0,1,144.78,54.69Z"/><path class="cls-1" d="M178.68,53.8q-3.35-2.8-3.34-8.49c0-3.61,1-6.32,3-8.13s5.12-2.7,9.25-2.7H198l.49,5.76H187.68a6.16,6.16,0,0,0-4.21,1.25,4.9,4.9,0,0,0-1.38,3.82,4.73,4.73,0,0,0,1.84,4.11,9.59,9.59,0,0,0,5.61,1.33,16.31,16.31,0,0,0,6.13-.87,2.89,2.89,0,0,0,2-2.75l.74,5.14a8.41,8.41,0,0,1-2.33,2.42,10.16,10.16,0,0,1-3.22,1.43,16.73,16.73,0,0,1-4.12.47Q182,56.59,178.68,53.8Zm19-20.87a7.67,7.67,0,0,0-1.91-5.57,7.18,7.18,0,0,0-5.43-2,14.06,14.06,0,0,0-4.27.67,12.78,12.78,0,0,0-3.71,1.86l-5.24-3.58a13.62,13.62,0,0,1,5.47-3.89A19.82,19.82,0,0,1,190.14,19a17.48,17.48,0,0,1,7.77,1.6,11.22,11.22,0,0,1,4.92,4.64,15,15,0,0,1,1.68,7.33V56.06h-6.82Z"/><path class="cls-2" d="M222.59,46.64a3.2,3.2,0,0,0,.58,2.06,2,2,0,0,0,1.63.72h3.38v6.82H224a8,8,0,0,1-6.31-2.53q-2.24-2.53-2.24-7.14V5h7.18Z"/><path class="cls-2" d="M243.43,46.64A3.26,3.26,0,0,0,244,48.7a2,2,0,0,0,1.64.72H249v6.82H244.8a8,8,0,0,1-6.31-2.53c-1.48-1.69-2.23-4.07-2.23-7.14V5h7.17Z"/><path class="cls-1" d="M263.4,54.69a12.69,12.69,0,0,1-5.47-5.57,19.35,19.35,0,0,1-1.88-8.88V36.13a21.64,21.64,0,0,1,1.81-9.25,12.94,12.94,0,0,1,5.26-5.83,16.2,16.2,0,0,1,8.3-2,13.19,13.19,0,0,1,7.8,2.29,14.2,14.2,0,0,1,4.94,6.61,28.19,28.19,0,0,1,1.71,10.37V40.7H261.26V34.93h17.79A12.23,12.23,0,0,0,276.74,28a6.47,6.47,0,0,0-5.32-2.48,7.77,7.77,0,0,0-6.31,2.67q-2.24,2.68-2.24,7.56v4.64q0,4.54,2.39,7a9.11,9.11,0,0,0,6.79,2.43,11.24,11.24,0,0,0,4.32-.88,12.35,12.35,0,0,0,3.84-2.46l4.71,4.71a19.84,19.84,0,0,1-6.08,4,17.34,17.34,0,0,1-6.79,1.42A18.24,18.24,0,0,1,263.4,54.69Z"/><path class="cls-1" d="M295.71,19.57h7.17V56.06h-7.17Zm17.68,6.89a8.62,8.62,0,0,0-3.34-.6,7.18,7.18,0,0,0-5.29,1.88A7.1,7.1,0,0,0,302.88,33l-.74-7a13.47,13.47,0,0,1,4.36-5.08A10.35,10.35,0,0,1,312.41,19a13.44,13.44,0,0,1,4.52.72,10.15,10.15,0,0,1,3.53,2.13l-4.68,6.33A6,6,0,0,0,313.39,26.46Z"/><path class="cls-2" d="M61.51,19.26V59.41H38.87a6.68,6.68,0,0,1-12.08,0H4.15V19.26H8V47.94H9.89v5.73h6.75a36.15,36.15,0,0,1,15.87,3.68,2.3,2.3,0,0,1,.32.15l.35-.17a35.79,35.79,0,0,1,7.53-2.69,36.32,36.32,0,0,1,8.32-1h6.75V47.94h1.91V19.26Z"/><path class="cls-3" d="M55.78,47.94v5.73H49a36.32,36.32,0,0,0-8.32,1,35.79,35.79,0,0,0-7.53,2.69l-.08-.17a25.52,25.52,0,0,1,19.63-9.22Z"/><path class="cls-3" d="M32.51,57.35a36.15,36.15,0,0,0-15.87-3.68H9.89V47.94h3a25.45,25.45,0,0,1,19.64,9.25Z"/><path class="cls-1" d="M57.69,5.87V47.94h-5A25.52,25.52,0,0,0,33.1,57.16l.08.17-.35.17V9.7a9.57,9.57,0,0,1,7.65-3.83Z"/><path class="cls-1" d="M32.58,57.19a25.45,25.45,0,0,0-19.64-9.25H8V5.87H25.18A9.54,9.54,0,0,1,32.83,9.7V57.5a2.3,2.3,0,0,0-.32-.15Z"/><path class="cls-2" d="M20.4,13.52v8.6a5.62,5.62,0,0,0-2.87.79l-.8-10.28c0-.05,0-.09,0-.15a1.84,1.84,0,0,1,3.68,0Z"/><path class="cls-2" d="M20.4,22.12v-8.6h1.45a1.9,1.9,0,0,1,1.86,2.32l-1.39,6.28-.11.3Z"/><path class="cls-4" d="M17.53,22.91a5.62,5.62,0,0,1,2.87-.79l1.81.3a5.58,5.58,0,0,1,2.25,1.39,5.67,5.67,0,0,1,1.68,4.05v.2A6,6,0,0,1,26,29.54L22.81,41.31a2.49,2.49,0,0,1-4.82,0L14.86,29.54a5.56,5.56,0,0,1-.19-1.48v-.2A5.69,5.69,0,0,1,17.53,22.91Z"/><path class="cls-2" d="M49.09,20.21H51A3.82,3.82,0,0,1,47.17,24H45.26A3.82,3.82,0,0,1,49.09,20.21Z"/><path class="cls-5" d="M45.26,26.9a7.67,7.67,0,1,1-1.49.15A7.31,7.31,0,0,1,45.26,26.9Z"/><path class="cls-6" d="M58.65,18.3V4.91H40.48a10.57,10.57,0,0,0-7.65,3.31,10.55,10.55,0,0,0-7.65-3.31H7V18.3H3.19V60.37h23a7.64,7.64,0,0,0,13.23,0h23V18.3ZM8.93,6.83H25.18A8.66,8.66,0,0,1,31.88,10V30.73h1.91V10a8.64,8.64,0,0,1,6.69-3.21H56.73V47h-4a26.35,26.35,0,0,0-18.94,8V32.64H31.88V55a26.35,26.35,0,0,0-18.94-8h-4Zm1.91,42.06h2.1a24.4,24.4,0,0,1,16,5.92,37.49,37.49,0,0,0-12.28-2.09H10.84Zm44,0v3.83H49a37.49,37.49,0,0,0-12.28,2.09,24.43,24.43,0,0,1,16-5.92Zm5.74,9.56H38.27L38,59a5.72,5.72,0,0,1-10.35,0l-.26-.55H5.11V20.21H7V48.89H8.93v5.74h7.7a35.57,35.57,0,0,1,15.78,3.72l.42.22.43-.22A35.5,35.5,0,0,1,49,54.63h7.7V48.89h1.92V20.21h1.91Z"/><path class="cls-6" d="M17.08,41.56a3.44,3.44,0,0,0,6.65,0l3.14-11.77h0a6.78,6.78,0,0,0,.23-1.72v-.21a6.7,6.7,0,0,0-3.75-6l1.29-5.81a2.87,2.87,0,0,0-2.8-3.49h-.48v-.07a2.8,2.8,0,0,0-4.85-1.9,2.82,2.82,0,0,0-.73,2.11l.74,9.72a6.67,6.67,0,0,0-2.81,5.44v.21a6.78,6.78,0,0,0,.23,1.72Zm8.1-13.7v.21A4.72,4.72,0,0,1,25,29.3L21.89,41.06a1.54,1.54,0,0,1-3,0L17.7,36.47h2.7V34.55H17.19l-.51-1.91h1.81V30.73H16.17l-.39-1.43a4,4,0,0,1-.09-.48H20.4V26.9H15.72a4.78,4.78,0,0,1,9.46,1ZM21.84,14.48a1,1,0,0,1,.75.35,1,1,0,0,1,.19.81l-1.26,5.63-.16,0V14.48Zm-4.16-1.92a.91.91,0,0,1,.24-.67.88.88,0,0,1,1.53.6v8.75a6.52,6.52,0,0,0-1.08.25Z"/><path class="cls-6" d="M39.53,41a8.61,8.61,0,0,0,5.75,2.19,8.06,8.06,0,0,0,1-.06,8.61,8.61,0,0,0,2.23-16.53l-.72,1.78A6.69,6.69,0,0,1,46,41.2a6.62,6.62,0,0,1-5.24-1.65A6.7,6.7,0,0,1,44,28a2.84,2.84,0,0,0,2.26-2.8V25h1A4.78,4.78,0,0,0,52,20.21v-.95H49.09a4.72,4.72,0,0,0-2.87,1V16.39H44.31v8.8a.93.93,0,0,1-.72.92A8.61,8.61,0,0,0,39.53,41Zm9.56-19.8h.79a2.88,2.88,0,0,1-2.71,1.91h-.79A2.88,2.88,0,0,1,49.09,21.17Z"/><path class="cls-6" d="M45.26,31.68a2.88,2.88,0,0,1,2.87,2.87H50a4.79,4.79,0,0,0-4.78-4.78Z"/><path class="cls-6" d="M47.17,8.74h7.65v1.91H47.17Z"/><path class="cls-6" d="M47.17,12.56h7.65v1.92H47.17Z"/></svg>